<svg height="32" viewBox="0 0 26 32" width="26" xmlns="http://www.w3.org/2000/svg"><path d="m28.3573889 5.64586667-5.2777778-5.33333334c-.1973889-.20053333-.4655-.31253333-.7462778-.31253333h-17.94444441c-.58372222 0-1.05555556.47786667-1.05555556 1.06666667v29.86666663c0 .5888.47183334 1.0666667 1.05555556 1.0666667h23.22222221c.5837222 0 1.0555556-.4778667 1.0555556-1.0666667v-24.5333333c0-.28266667-.1108334-.55466667-.3092778-.75413333zm-2.2388333.75413333h-3.7852223v-3.82506667zm-20.67411116 23.4666667v-27.73333337h14.77777776v5.33333334c0 .5888.4718334 1.06666666 1.0555556 1.06666666h5.2777778v21.33333337zm4.22222223-10.6666667h12.66666663v2.1333333h-12.66666663zm0-4.2666667h12.66666663v2.1333334h-12.66666663zm0-4.2666666h12.66666663v2.1333333h-12.66666663z" fill="#fff" fill-opacity=".9" fill-rule="evenodd" transform="translate(-3)"/></svg>