<svg height="31" viewBox="0 0 32 31" width="32" xmlns="http://www.w3.org/2000/svg"><path d="m5.15142734 3.22381423c5.97187876-5.72971491 15.46400066-5.6292763 21.38987896.29660192 6.0280485 6.02804854 6.0280485 15.74637485 0 21.69066615-4.8017485 4.8017485-12.0620137 5.8499365-17.92944342 2.8333185l-.17719621-.0950675-.17245346.1153133c-1.84608662 1.1562522-3.85022677 1.5785768-5.75451187 1.3895681l-.3794492-.0459166c-1.52717215-.2181674-1.80183731-2.2323786-.4809-2.8926047l.29334031-.1694208c.76668897-.4832603 1.40862702-1.2147023 1.9177509-2.108181l.02422332-.0460916-.24361736-.2979691c-4.71700598-5.9321237-4.36279465-14.49600406.91340573-20.06721748l.29818507-.30639727zm19.97566536 1.71081549c-5.245346-5.24534596-13.6897108-5.24534596-18.85731164-.00496197l-.27896616.28722337c-4.74700584 5.03255978-4.89620581 12.83919158-.35226092 17.95367798l.65185179.6518518-.29620051.6347153c-.55355509 1.1861895-1.28397094 2.2232546-2.21640078 3.013804l-.02047115.0157265c1.14382292-.0623394 2.30266672-.4102762 3.39571207-1.0863247l.32585374-.2127009.84157719-.6048113.56102229.3285988c5.20656658 3.0495604 11.88741788 2.2436164 16.25055608-2.1194872 5.240384-5.1676009 5.240384-13.6119657-.004962-18.85731168zm-14.8720981 7.66965158c1.017737 0 1.8006116.7828747 1.8006116 1.8006117-.0782874 1.017737-.8611621 1.8006116-1.8006116 1.8006116-.93944955 0-1.80061163-.7828746-1.80061163-1.8006116 0-.9394496.78287462-1.8006117 1.80061163-1.8006117zm5.4801223 0c.9394496 0 1.8006116.7828747 1.8006116 1.8006117-.0782874 1.017737-.861162 1.8006116-1.8006116 1.8006116-.9394495 0-1.8006116-.7828746-1.8006116-1.8006116 0-.9394496.7828746-1.8006117 1.8006116-1.8006117zm5.4018349 0c.9394495 0 1.8006116.7828747 1.8006116 1.8006117s-.7828746 1.8006116-1.8006116 1.8006116c-.9394496 0-1.8006116-.7828746-1.8006116-1.8006116 0-.9394496.7828746-1.8006117 1.8006116-1.8006117z" fill="#fff" fill-opacity=".9" fill-rule="evenodd" transform="translate(0 1)"/></svg>