<svg height="16" viewBox="0 0 16 16" width="16" xmlns="http://www.w3.org/2000/svg"><path d="m12.0228199 258.047589c3.3568518 0 3.9771801 2.212753 3.9771801 5.091136v5.861275h-3.3152482v-5.19689c0-1.239813-.0211123-2.834214-1.7225133-2.834214-1.72561802 0-1.98890051 1.351166-1.98890051 2.745256v5.285848h-3.31090154v-10.687403h3.1780184v1.461275h.04532929c.44211589-.840435 1.52380956-1.726283 3.13703576-1.726283zm-8.44056353.265008v10.687403h-3.31897388v-10.687403zm-1.65855551-5.312597c1.06058136 0 1.92183801.86283 1.92183801 1.925972 0 1.063764-.86125665 1.926594-1.92183801 1.926594-1.06492801 0-1.92370086-.86283-1.92370086-1.926594 0-1.063142.85877285-1.925972 1.92370086-1.925972z" fill-rule="evenodd" transform="translate(0 -253)"/></svg>