<svg height="60" viewBox="0 0 242 60" width="242" xmlns="http://www.w3.org/2000/svg"><g fill="none" fill-rule="evenodd"><g transform="translate(60 21)"><path d="m139.936426 4.41943359 2.091797 7.13671871h.215332l1.68164-7.13671871h2.942871v1.42529297l-3.158203 9.59765624-.08182.2363181c-.733611 2.0094468-2.104287 3.0141702-4.112027 3.0141702h-1.579102v-2.7275391h1.579102l.102111-.0065511c.366578-.0480414.646993-.3603108.841248-.9368082v-.1025391l-3.46582-9.03369141v-1.4663086zm-36.647852 0 .214768.00815186c.63646.04891113 1.202322.31792236 1.697586.80703369.500266.49405185.773139 1.0657848.818617 1.71519886l.006822.19715466v7.97753904h-2.102051l-.42041-1.1586914h-.102539l-.017659.0438639c-.014432.0311415-.03418.0660808-.059245.1048178-.022559.0348632-.063574.0881835-.123047.1599609l-.143555.1681641c-.140136.1606445-.293945.3007812-.461425.4204101-.167481.1196289-.394776.2272949-.681885.3229981-.229688.0765625-.474688.1225-.735.1378125l-.198106.0057421h-1.3637692l-.2006291-.0067794c-.6601482-.0451963-1.234141-.316374-1.7219783-.8135331-.482959-.4921875-.7485865-1.0563574-.7968824-1.6925097l-.0080493-.2147168v-1.2612305l.0080493-.2147168c.0482959-.6361523.3139234-1.20032225.7968824-1.69250975.4878373-.49715909 1.0618301-.76833678 1.7219783-.81353306l.2006291-.00677944h3.3632812v-.73828125l-.005232-.14930943c-.020926-.28669085-.104631-.50181362-.251116-.6453683-.146484-.14355469-.363281-.22558594-.65039-.24609375l-.149414-.00512696h-4.0913089v-2.40966797zm23.153516 0 .214768.00815186c.63646.04891113 1.202322.31792236 1.697585.80703369.500267.49405185.773139 1.0657848.818618 1.71519886l.006822.19715466v7.97753904h-2.102051l-.42041-1.1586914h-.102539l-.01766.0438639c-.014431.0311415-.034179.0660808-.059244.1048178-.022559.0348632-.063575.0881835-.123047.1599609l-.143555.1681641c-.140137.1606445-.293945.3007812-.461426.4204101-.16748.1196289-.394775.2272949-.681885.3229981-.229687.0765625-.474687.1225-.735.1378125l-.198105.0057421h-1.36377l-.200629-.0067794c-.660148-.0451963-1.234141-.316374-1.721978-.8135331-.482959-.4921875-.748586-1.0563574-.796882-1.6925097l-.00805-.2147168v-1.2612305l.00805-.2147168c.048296-.6361523.313923-1.20032225.796882-1.69250975.487837-.49715909 1.06183-.76833678 1.721978-.81353306l.200629-.00677944h3.363282v-.73828125l-.005232-.14930943c-.020926-.28669085-.104632-.50181362-.251116-.6453683-.146484-.14355469-.363281-.22558594-.650391-.24609375l-.149414-.00512696h-4.091308v-2.40966797zm-11.310156-.21533203.200629.00677944c.660148.04519629 1.234141.31637397 1.721978.81353306.536621.546875.804932 1.18261719.804932 1.90722656v8.19287108h-3.045411v-7.13671873l-.005126-.14941406c-.020508-.28710938-.10254-.50390625-.246094-.65039063-.167481-.17089844-.435791-.25634766-.804932-.25634766h-.625488l-.192661.00528718c-.432534.02467346-.745999.13570404-.940396.33309173-.222168.22558594-.333252.60498047-.333252 1.13818359v6.71630858h-3.04541v-10.70507811h2.091797l.42041 1.1484375h.112793l.01709-.04329427c.013672-.03038194.031901-.06380208.054687-.10026041.03418-.0546875.121338-.16235352.261475-.32299805s.293945-.30078125.461426-.42041016c.16748-.1196289.394775-.2290039.681885-.328125.287109-.09912109.598144-.14868164.933105-.14868164zm19.790234-3.56835937v14.48876951h-3.04541v-14.48876951zm17.800977.84082031v2.94287109h2.512207v1.67138672l-.840821.84082031h-1.671386v4.40917968l.005126.1494141c.020508.2871094.10254.5039062.246094.6503906.167481.1708984.432373.2563477.794678.2563477h1.78418v2.727539h-3.14795l-.200629-.0067794c-.660148-.0451963-1.234141-.316374-1.721978-.8135331-.536621-.546875-.804932-1.1826172-.804932-1.9072265v-5.46533208h-1.476562v-2.51220703h1.68164l1.045899-2.94287109zm8.264746 2.94287109v10.70507811h-3.045411v-10.70507811zm10.684668 0v1.88671875l-.840821.84082032h-3.147949l-.149414.00512695c-.287109.02050781-.503906.10253906-.650391.24609375-.170898.16748047-.256347.43237305-.256347.79467773v3.14794921l.005127.1494141c.020507.2871094.102539.5039062.246093.6503906.167481.1708984.435791.2563477.804932.2563477h3.98877v2.727539h-5.362793l-.200629-.0067794c-.660149-.0451963-1.234141-.316374-1.721979-.8135331-.536621-.546875-.804931-1.1826172-.804931-1.9072265v-5.25000004l.0081-.2147168c.048604-.63615234.315923-1.20032227.801958-1.69250977.540039-.546875 1.179199-.8203125 1.917481-.8203125zm9.741308 0v1.67138672l-.84082.84082031h-3.56836l-.122841.00840821c-.158047.02242187-.293125.0896875-.405235.20179687-.140136.14013672-.210205.31616211-.210205.52807618 0 .36230468.246094.60839843.738281.73828124l2.307129.52294922.256668.0713768c.587677.18355561 1.096848.48617936 1.527512.90787125.492188.48193361.738281 1.03051761.738281 1.64575191v.8408204l-.0081.2147168c-.048604.6361523-.315923 1.2003222-.801958 1.6925097-.540039.546875-1.179199.8203125-1.917481.8203125h-5.885742v-2.5224609h4.82959l.122842-.0084082c.158047-.0224219.293125-.0896875.405234-.2017969.140137-.1401367.210205-.3127441.210205-.5178223 0-.1572265-.070068-.3059082-.210205-.4460449s-.316162-.2375488-.528076-.2922363l-2.307129-.5229492-.243245-.0627261c-.634983-.1826292-1.160591-.4881366-1.576823-.91652198-.468262-.48193359-.702393-1.03051758-.702393-1.64575195v-.84082031l.008101-.2147168c.048603-.63615234.315923-1.20032227.801958-1.69250977.540039-.546875 1.179199-.8203125 1.91748-.8203125zm-78.43291 6.29589841h-1.999512l-.149309.005127c-.286691.0205078-.501814.102539-.645368.2460937-.143555.1435547-.2255864.3586775-.2460942.6453683l-.0051269.1493095v.1127929l.0051269.1493095c.0205078.2866908.1025392.5018136.2460942.6453683.143554.1435547.358677.2255859.645368.2460937l.149309.005127h.52295c.519531 0 .895507-.116211 1.127929-.3486328.203369-.2033692.317765-.5140305.343186-.931984l.005447-.1856918zm23.153516 0h-1.999512l-.149309.005127c-.286691.0205078-.501814.102539-.645369.2460937-.143554.1435547-.225586.3586775-.246094.6453683l-.005126.1493095v.1127929l.005126.1493095c.020508.2866908.10254.5018136.246094.6453683.143555.1435547.358678.2255859.645369.2460937l.149309.005127h.522949c.519531 0 .895508-.116211 1.12793-.3486328.203369-.2033692.317764-.5140305.343185-.931984l.005448-.1856918z" fill="#fff"/><path d="m160.987891 3.15820312v-3.15820312h-3.045411v3.15820312z" fill="#fdd73e"/><g fill="#fff"><path d="m78.8942383 4.20410156.2006291.00677944c.6601482.04519629 1.2341409.31637397 1.7219783.81353306.482959.4921875.7485864 1.05635742.7968823 1.69250977l.0080493.21471679v5.67041018l-.0080493.2147168c-.0482959.6361523-.3139233 1.2003222-.7968823 1.6925097-.4878374.4971591-1.0618301.7683368-1.7219783.8135331l-.2006291.0067794h-4.2041016l-.2006291-.0067794c-.6601482-.0451963-1.2341409-.316374-1.7219783-.8135331-.482959-.4921875-.7485864-1.0563574-.7968823-1.6925097l-.0080493-.2147168v-5.67041018l.0081005-.21471679c.0486036-.63615235.3159229-1.20032227.8019581-1.69250977.4909446-.49715909 1.0638074-.76833677 1.7185885-.81353306l.1988919-.00677944zm12.3663086-3.7836914v2.52246093h-2.9428711l-.1493094.00512696c-.2866909.02050781-.5018137.10253906-.6453684.24609375-.1674804.16748047-.2512207.43579101-.2512207.80493164v1.46630859h2.8300782v1.57910156l-.5229493.94335938h-2.3071289v7.13671873h-3.0454101v-11.96630858l.0082031-.21476806c.0492188-.63645996.3199219-1.20232178.8121094-1.69758545.546875-.55029297 1.1826172-.82543945 1.9072265-.82543945zm-13.7300781 6.51123046h-1.4663086l-.1494141.00512696c-.2871094.02050781-.5039063.10253906-.6503906.24609375-.1464844.14355469-.2301898.36118861-.2511161.65290178l-.0052316.15202986v3.56835933l.0052316.1493095c.0209263.2866908.1046317.5018136.2511161.6453683.1464843.1435547.3632812.2255859.6503906.2460937l.1494141.005127h1.4663086c.3623046 0 .6271972-.0837403.7946777-.2512207.1435547-.1435547.2255859-.3586775.2460937-.6453683l.005127-.1493095v-3.56835933l-.005127-.14941406c-.0205078-.28710938-.102539-.50390625-.2460937-.65039063-.1674805-.17089844-.4323731-.25634766-.7946777-.25634766z"/><path d="m22.9688477 4.20410156.2006291.00677944c.6601482.04519629 1.2341409.31637397 1.7219783.81353306.482959.4921875.7485864 1.05635742.7968823 1.69250977l.0080493.21471679v5.67041018l-.0080493.2147168c-.0482959.6361523-.3139233 1.2003222-.7968823 1.6925097-.4878374.4971591-1.0618301.7683368-1.7219783.8135331l-.2006291.0067794h-4.2041016l-.2006291-.0067794c-.6601482-.0451963-1.234141-.316374-1.7219783-.8135331-.482959-.4921875-.7485865-1.0563574-.7968824-1.6925097l-.0080493-.2147168v-5.67041018l.0081006-.21471679c.0486035-.63615235.3159229-1.20032227.801958-1.69250977.4909446-.49715909 1.0638075-.76833677 1.7185886-.81353306l.1988919-.00677944zm-19.82089848.21533203.94335937 6.71630861h.21533203l1.78417969-6.71630861h2.52246094l1.78417965 6.71630861h.2050782l.9433593-6.71630861h3.1582032v1.4663086l-2.3173828 9.23876951h-3.04541021l-1.88671875-6.61376951h-.20507812l-1.89697266 6.61376951h-3.04541015l-2.30712891-9.23876951v-1.4663086zm28.19843748-3.7836914v14.48876951h-3.0454101v-14.48876951zm5.0142578 3.7836914 1.9892578 7.34179691h.2153321l1.7841797-7.34179691h2.9428711v1.4663086l-3.2607422 9.23876951h-3.3632813l-3.2504883-9.23876951v-1.4663086zm14.9913086-.21533203.2006291.00677944c.6601482.04519629 1.234141.31637397 1.7219783.81353306.482959.4921875.7485865 1.05635742.7968824 1.69250977l.0080493.21471679v3.98876958h-6.4086914v.7382812l.0051269.1493094c.0205078.2866909.1025391.5018137.2460938.6453683.1435547.1435547.3611886.225586.6529018.2460938l.1520298.0051269h4.8295899v2.4199219h-6.2036133l-.2006291-.0067794c-.6601482-.0451963-1.234141-.316374-1.7219783-.8135331-.482959-.4921875-.7485865-1.0563574-.7968824-1.6925097l-.0080493-.2147168v-5.46533208l.0081006-.21471679c.0486035-.63615235.3159229-1.20032227.801958-1.69250977.4909446-.49715909 1.0638075-.76833677 1.7185886-.81353306l.1988919-.00677944zm12.6739258.21533203v1.67138672l-.8408203.84082031h-3.5683594l-.1228418.00840821c-.1580469.02242187-.293125.0896875-.4052344.20179687-.1401367.14013672-.210205.31616211-.210205.52807618 0 .36230468.2460937.60839843.7382812.73828124l2.3071289.52294922.2566681.0713768c.587677.18355561 1.0968476.48617936 1.5275116.90787125.4921875.48193361.7382813 1.03051761.7382813 1.64575191v.8408204l-.0081006.2147168c-.0486035.6361523-.3159229 1.2003222-.801958 1.6925097-.5400391.546875-1.1791993.8203125-1.9174805.8203125h-5.8857422v-2.5224609h4.8295899l.1228418-.0084082c.1580468-.0224219.293125-.0896875.4052343-.2017969.1401367-.1401367.2102051-.3127441.2102051-.5178223 0-.1572265-.0700684-.3059082-.2102051-.4460449s-.3161621-.2375488-.5280761-.2922363l-2.3071289-.5229492-.2432455-.0627261c-.6349826-.1826292-1.1605903-.4881366-1.5768229-.91652198-.4682617-.48193359-.7023926-1.03051758-.7023926-1.64575195v-.84082031l.0081006-.2147168c.0486035-.63615234.3159229-1.20032227.801958-1.69250977.5400391-.546875 1.1791992-.8203125 1.9174805-.8203125zm-42.4208008 2.51220703h-1.4663086l-.149414.00512696c-.2871094.02050781-.5039063.10253906-.6503907.24609375-.1464843.14355469-.2301897.36118861-.251116.65290178l-.0052316.15202986v3.56835933l.0052316.1493095c.0209263.2866908.1046317.5018136.251116.6453683.1464844.1435547.3632813.2255859.6503907.2460937l.149414.005127h1.4663086c.3623047 0 .6271973-.0837403.7946778-.2512207.1435546-.1435547.2255859-.3586775.2460937-.6453683l.005127-.1493095v-3.56835933l-.005127-.14941406c-.0205078-.28710938-.1025391-.50390625-.2460937-.65039063-.1674805-.17089844-.4323731-.25634766-.7946778-.25634766zm28.3728516-.30761718h-1.2509766l-.149414.00512695c-.2871094.02050781-.5039063.10253906-.6503907.24609375-.1464843.14355469-.2301897.35867746-.251116.6453683l-.0052316.14930944v.94335937h3.3632812v-.94335937l-.0051269-.14930944c-.0205078-.28669084-.1025391-.50181361-.2460938-.6453683-.1674804-.16748047-.435791-.2512207-.8049316-.2512207z"/></g></g><path d="m30.9987118.02031401c.5052823.01861197 1.0078236.05166066 1.5071803.09553447l-.0225554.00699951c.0095565-.00258342.0179673-.00530815.0277676-.0082035.1796816.01591428.3590358.03324743.5379284.05226662l.2691216.02996802c.1772174.02035288.3540143.04238674.5303806.06601927l.275995.03829439c.1751693.0251164.3499029.05179032.5242832.08001163l.2679467.04465111c.1750194.03002285.349588.06147975.5237159.09445299l.2628762.05092418-.0965989.09067839c-.7769666.71396258-2.0113124 1.50386431-2.3573225 1.67872313l-.039242.01892805c-.4522594.20414603-1.5148416 1.23899822-1.6390676 1.72068417l.1030738.21034812c.5943614 1.22594813 3.538249 7.48076444 2.9798631 9.98227794l-.1857999.8198986c-.227719 1.0244797-.4050447 2.0312084-.1562068 2.8370906.3151606 1.0205063 4.0405102 7.420275 4.3917188 7.9738703.3504431.5542532 1.6354509 1.1815704 1.1893011 1.9639183-.4455598.7825575-1.1068233 1.3132632-2.0900082 1.1612863-.973662-.1506984-3.9763616 2.2376379-7.6847419.9419526l-.0697209-.0250281-.13674-.0426602-.0091748-.003203c-3.7606924-1.3848004-6.6917094 1.2189808-7.6749625 1.0664482-.9828729-.1517332-1.6441364.3789725-2.0902521 1.1615982-.4381828.7683775.793517 1.3872115 1.1701752 1.9340913l.0196818.0297589c.3506186.5533857 4.0765582 6.9533639 4.391163 7.9739385.3151946 1.0207841-.0533666 2.3638153-.3420068 3.6569891-.4839315 2.1679555 1.6627798 7.1549857 2.630779 9.2442136 1.6498644 2.5534371 4.0215377 4.0100866 7.1152295 4.3693588-.5295319.0940647-1.06428.1755156-1.6045512.2418526-4.0569225.4981274-8.0232631.1560117-11.726229-.8880666l-.2017178-.0576451c-6.9649772-2.0212639-12.98220156-6.5308184-16.88227512-12.6218932l-.13089279-.2065453c-.46211109-.7348735-.89338213-1.492696-1.29198807-2.2715129l-.16920685-.3355462-.02105592-.0425351c-.28717414-.581198-.55681937-1.1735723-.8072341-1.7770499l-.02390161-.0591059c-.07625015-.1844677-.15039825-.3701961-.2228257-.5568879l-.10739837-.2807229c-.01457092-.0382553-.02914184-.0765107-.04346895-.1150779-.2246808-.6029713-.4308284-1.2158323-.61726291-1.8381638l-.04008869-.1357972c-.05476123-.1856022-.10788417-.3721576-.15918389-.5595217l-.10407973-.3875499c-.05569217-.2146282-.10925197-.4302702-.16042225-.6468741l-.07800861-.339484-.00286903-.0138888c-.10481082-.46992-.19947011-.9444704-.28258829-1.4238219l-.00955728-.0594571c-.03836663-.2228656-.07454403-.446282-.10807871-.6711508-.03671206-.248449-.07074728-.4980727-.10151571-.7486615-1.07614475-8.7644956 1.75346085-17.1064295 7.12166543-23.2801302 4.67115475-5.3715441 11.26440625-9.10179831 18.88295305-10.03723823.2743044-.03368034.5479529-.06236273.8212132-.0877456l.2731407-.02434593c.0650276-.00572836.1300552-.01145673.1951511-.01662946.2774301-.02200851.5546187-.04081483.8312118-.05542375l.2814523-.01323152c.2944701-.01246813.5884023-.02027004.8816219-.02386016l.3095773-.00282015c.3928695 0 .7847146.00628695 1.1746333.02045161zm-2.0610054 44.00015799.1349755.0409234c.368997.1152845 1.427102.4686204 2.3265742.9896092 1.1097393.6432344.4751894 3.6464303.4751894 3.6464303.0124201-.6257957-1.4905839-1.212292-2.5958488-2.1056714-1.1046331-.8928935-.3408903-2.5712915-.3408903-2.5712915zm-.6745295-29.5869705-.0277528.1496225c-.1005702.5797316-.3966659 2.6707789.4609316 3.1761493l.1097367.0632499c.9757133.5504473 2.1041883.8806291 2.1041883.8806291l.0245421-.0598454c.1130972-.2900991.542158-1.5653811-.3350846-2.2855138-.9948324-.8166378-2.3463411-1.3537268-2.3365613-1.9242916z" fill="#fdd73e"/></g></svg>