<svg height="34" viewBox="0 0 34 34" width="34" xmlns="http://www.w3.org/2000/svg"><path d="m29.272395.41319943-.0017283 7.31346724.0800933.02000011c1.8234839.51430153 3.2088794 2.01320432 3.6031311 3.87445122l.0495195.2682902.0356762.2728169.0210054.2756828.0065745.261853c0 2.232336-1.4167044 4.186198-3.4839609 4.8810273l-.2511444.0772734-.0608947.0139384.0017209 15.3946667h-2.5752249l-.0011627-15.3946667-.0772362-.019145c-1.8234839-.5143015-3.2088794-2.0132043-3.6031311-3.8744513l-.0495195-.2682901-.0356762-.2728169-.0210054-.2756829-.0065745-.2618529c0-2.232336 1.4167044-4.18619802 3.4829456-4.88077917l.2510176-.07724242.0591797-.01507264.0011849-7.31346724zm-11.4285659-.41319943-.0024958 15.6226667.0808553.0207002c1.8234839.5143015 3.2088793 2.0132043 3.6031311 3.8744513l.0495195.2682901.0356762.2728169.0210054.2756829.0065744.2618529c0 2.232336-1.4167044 4.186198-3.4824964 4.8806679l-.2509615.0772285-.063304.0149759.0025196 7.0841339h-2.5752598l-.0005931-7.0841339-.0778077-.0197782c-1.8234839-.5143015-3.2088793-2.0132043-3.603131-3.8744512l-.0495195-.2682902-.0356762-.2728169-.0210054-.2756828-.0065745-.261853c0-2.232336 1.4167044-4.186198 3.4824838-4.8806647l.25096-.0772281.0602705-.0159015.0005812-15.6226667zm-11.47429867 0-.00153043 7.72666667.0799029.02000011c1.8234839.51430153 3.20887932 2.01320432 3.6031311 3.87445122l.0495195.2682902.0356762.2728169.0210053.2756828.0065745.261853c0 2.232336-1.41670438 4.186198-3.48392274 4.8810181l-.25113964.0772722-.06074712.0139488.0015273 14.6141789h-2.57522414l-.00096983-14.6141789-.0774267-.019145c-1.8234839-.5143015-3.20887933-2.0132043-3.60313107-3.8744513l-.04951949-.2682901-.03567622-.2728169-.02100537-.2756829-.00657448-.2618529c0-2.232336 1.4167044-4.18619802 3.48298445-4.88078876l.25102248-.07724362.0593264-.01506185.0009855-7.72666667zm10.20951717 18.0537542c-1.3965225 0-2.5295238 1.1381991-2.5295238 2.5427068s1.1330013 2.5427069 2.5295238 2.5427069 2.5295238-1.1381992 2.5295238-2.5427069-1.1330013-2.5427068-2.5295238-2.5427068zm-11.4742857-7.8507891c-1.39652249 0-2.5295238 1.1381991-2.5295238 2.5427068s1.13300131 2.5427069 2.5295238 2.5427069c1.3965225 0 2.52952381-1.1381992 2.52952381-2.5427069s-1.13300131-2.5427068-2.52952381-2.5427068zm22.8571429-.0459111c-1.3965225 0-2.5295238 1.1381992-2.5295238 2.5427069s1.1330013 2.5427068 2.5295238 2.5427068 2.5295238-1.1381991 2.5295238-2.5427068-1.1330013-2.5427069-2.5295238-2.5427069z" fill="#fff" fill-opacity=".9" fill-rule="evenodd"/></svg>