<svg height="34" viewBox="0 0 22 34" width="22" xmlns="http://www.w3.org/2000/svg"><path d="m19.9989729-.33333333c.4854561 0 .8868439.36119677.9503706.82942462l.0087581.13016121-.0007683 3.43108083 5.8445052 7.62565407c.2278542.2972625.2570931.6894919.0987683 1.0093211l-.0793047.132149-.1020784.1203559-2.6626051 2.6695603c-.2836576.2838648-.7090499.3578153-1.0674404.1992057l-.1308481-.070424-2.0369968-1.3124887-2.158058.000863-.1046086-.0035297.0003858 1.0098758c0 1.7470521.9153768 3.3858659 2.3708795 4.3137881l.2475206.147968.2440576.1278111c.2873033.1410696.4828613.4147823.5272617.7259576l.009601.135377-.0010396 3.0578891.1432018.0241171c1.5475517.3034418 2.7409264 1.5759597 2.9411457 3.1461372l.0225044.2376752.0071442.2305741v3.7885772c0 .4855875-.3609331.8872499-.8290066.9508215l-.1301221.0087643h-18.153072c-.4854561 0-.88684388-.3611967-.95037062-.8294246l-.00875808-.1301612v-3.7885772c0-1.5393216.95527328-2.8843755 2.33370029-3.427419l.2210853-.0789902.16788108-.0494278.00079476-11.7858463c0-4.92569177 3.67620797-9.04359425 8.47125677-9.67513859l.3212994-.03690859.0546491-.00477315.03118-.15640414c.3243935-1.4073427 1.4971559-2.48026677 2.9331171-2.67272363l.2416635-.02383004zm1.3927702 26.15564463h-12.70915297c-.91155038 0-1.66374684.6957324-1.75421067 1.5845652l-.00912081.1801923.00074135 2.8289312h16.2346667l.0004078-2.8288257c0-.9118524-.6955499-1.6651307-1.5833559-1.7557285zm-2.3517431-23.9063113-.1061357.08954638c-.2672619.24860013-.4451574.58728694-.4905303.96115477l-.0114431.18961148-.0018677.18720832c.0186109.17506993-.011152.35128429-.0825011.50487806l-.0712116.12676825c-.2020688.30864608-.5612919.47314184-.8783569.42929211-4.186197.04132898-7.59247084 3.38479193-7.74863815 7.54082013l-.00559407.2982075-.00105471 11.6591797h10.40000003l-.0026667-2.4466667-.1639305-.0985811c-.7659113-.4906509-1.4287125-1.1253851-1.9532367-1.8708526l-.2162277-.3261684c-.6269091-1.0049228-.9878769-2.1482854-1.0538014-3.3273261l-.0110074-.394194-.000463-1.5748778-.0759827-.0438597c-1.0474593-.6672397-1.7154581-1.7923121-1.7998693-3.0318549l-.0090812-.2672433v-.4068136c0-.52973188.4295402-.95958588.9591287-.95958588.4854561 0 .8868439.36119677.9503706.82942463l.0087581.13016125v.4068136c0 .7297496.3979817 1.4000362 1.0389754 1.7495343.2324401.1269405.489852.2061577.7532606.232767l.1983843.0100167h2.4411026c.1382503 0 .2739366.0295808.3984473.0864319l.1204666.0658558 1.620039 1.0436855 1.524-1.5266666-5.53009-7.2147599c-.1030504-.13381789-.1681948-.29223291-.1901305-.4583609l-.0082673-.12577836z" fill="#fff" fill-opacity=".9" fill-rule="evenodd" transform="translate(-5 1)"/></svg>