<svg enable-background="new 0 0 16 13" height="13" viewBox="0 0 16 13" width="16" xmlns="http://www.w3.org/2000/svg"><path d="m14.36 3.235.009.424c.001 4.341-3.3 9.341-9.337 9.341-1.853 0-3.579-.544-5.032-1.475.257.029.519.047.784.047 1.538 0 2.953-.525 4.077-1.405-1.438-.027-2.648-.976-3.067-2.282.2.039.405.057.617.057.301 0 .591-.037.865-.113-1.5-.302-2.632-1.629-2.632-3.217v-.041c.445.245.948.393 1.486.41-.88-.588-1.46-1.593-1.46-2.731 0-.603.163-1.165.444-1.652 1.617 1.988 4.037 3.295 6.764 3.432-.055-.241-.082-.493-.082-.749 0-1.812 1.468-3.281 3.281-3.281.945 0 1.796.399 2.398 1.036.745-.148 1.448-.421 2.082-.796-.245.767-.763 1.409-1.442 1.816.661-.077 1.297-.256 1.885-.517-.44.658-.998 1.236-1.64 1.696z"/></svg>