<?xml version="1.0" standalone="no"?>
<!DOCTYPE svg PUBLIC "-//W3C//DTD SVG 20010904//EN"
 "http://www.w3.org/TR/2001/REC-SVG-20010904/DTD/svg10.dtd">
<svg version="1.0" xmlns="http://www.w3.org/2000/svg"
 width="700.000000pt" height="700.000000pt" viewBox="0 0 700.000000 700.000000"
 preserveAspectRatio="xMidYMid meet">
<metadata>
Created by potrace 1.11, written by Peter Selinger 2001-2013
</metadata>
<g transform="translate(0.000000,700.000000) scale(0.100000,-0.100000)"
fill="#000000" stroke="none">
<path d="M0 3500 l0 -3500 3500 0 3500 0 0 3500 0 3500 -3500 0 -3500 0 0
-3500z m2002 1718 c3 -18 79 -574 169 -1236 l164 -1203 40 3 40 3 312 1210
c172 666 315 1220 318 1233 l5 22 450 0 450 0 6 -23 c3 -13 146 -568 317
-1233 l312 -1209 37 -3 c33 -3 37 0 42 25 3 15 78 561 166 1213 88 652 163
1195 166 1208 l4 22 560 0 560 0 0 -277 0 -278 -412 -1692 -412 -1693 -541 0
-542 0 -11 38 c-6 20 -155 559 -332 1197 -176 638 -325 1170 -330 1183 -7 16
-18 22 -40 22 -22 0 -33 -6 -40 -22 -5 -13 -159 -558 -340 -1212 -182 -655
-333 -1193 -336 -1198 -3 -4 -248 -8 -544 -8 -504 0 -539 1 -544 17 -3 10
-187 771 -410 1692 l-406 1675 0 278 0 278 559 0 558 0 5 -32z"/>
</g>
</svg>
