<?xml version="1.0" encoding="utf-8"?><svg xmlns="http://www.w3.org/2000/svg" xmlns:xlink="http://www.w3.org/1999/xlink"><symbol viewBox="0 0 17 16" id="icon-arrow" xmlns="http://www.w3.org/2000/svg"><path d="M0 6.971h13.147L7.753 1.455 9.176 0 17 8l-7.824 8-1.423-1.455 5.394-5.516H0z" fill-rule="evenodd"/></symbol><symbol viewBox="0 0 9 15" id="icon-arrow-small" xmlns="http://www.w3.org/2000/svg"><path d="M9 7.5L1.385 15 0 13.636 6.23 7.5 0 1.364 1.385 0z" fill="#fdd73e" fill-rule="evenodd"/></symbol><symbol viewBox="0 0 26 32" id="icon-audits" xmlns="http://www.w3.org/2000/svg"><path d="M25.357 5.646L20.08.313A1.045 1.045 0 0019.333 0H1.39A1.06 1.06 0 00.333 1.067v29.866A1.06 1.06 0 001.39 32H24.61a1.06 1.06 0 001.056-1.067V6.4c0-.283-.111-.555-.31-.754zM23.12 6.4h-3.786V2.575zM2.444 29.867V2.133h14.778v5.334a1.06 1.06 0 001.056 1.066h5.278v21.334zM6.667 19.2h12.666v2.133H6.667zm0-4.267h12.666v2.134H6.667zm0-4.266h12.666V12.8H6.667z" fill="#fff" fill-opacity=".9" fill-rule="evenodd"/></symbol><symbol fill="#262626" viewBox="0 0 14 14" id="icon-cross" xmlns="http://www.w3.org/2000/svg"><path d="M14 1.41L12.59 0 7 5.59 1.41 0 0 1.41 5.59 7 0 12.59 1.41 14 7 8.41 12.59 14 14 12.59 8.41 7z"/></symbol><symbol viewBox="0 0 8 17" id="icon-facebook" xmlns="http://www.w3.org/2000/svg"><path d="M7.688 8.499L5.349 8.5 5.348 17H2.14V8.5H0V5.572l2.14-.003-.004-1.724C2.136 1.453 2.789 0 5.622 0h2.361v2.931H6.506c-1.103 0-1.157.408-1.157 1.17l-.004 1.468H8z"/></symbol><symbol viewBox="0 0 32 31" id="icon-knowledge" xmlns="http://www.w3.org/2000/svg"><path d="M5.151 4.224c5.972-5.73 15.464-5.63 21.39.296 6.028 6.028 6.028 15.747 0 21.691a15.4 15.4 0 01-17.93 2.833l-.176-.095-.173.116c-1.846 1.156-3.85 1.578-5.754 1.39l-.38-.047c-1.527-.218-1.802-2.232-.48-2.892l.293-.17c.766-.483 1.408-1.214 1.917-2.108l.025-.046-.244-.298c-4.717-5.932-4.363-14.496.913-20.067l.299-.307zm19.976 1.71C19.882.69 11.437.69 6.27 5.93l-.28.287c-4.746 5.032-4.895 12.84-.351 17.954l.651.651-.296.635c-.553 1.186-1.284 2.223-2.216 3.014l-.02.016A7.168 7.168 0 007.152 27.4l.326-.212.841-.605.561.328c5.207 3.05 11.888 2.244 16.251-2.12 5.24-5.167 5.24-13.611-.005-18.856zm-14.872 7.67c1.018 0 1.8.783 1.8 1.8-.078 1.019-.86 1.802-1.8 1.802-.94 0-1.8-.783-1.8-1.801 0-.94.782-1.8 1.8-1.8zm5.48 0c.94 0 1.8.783 1.8 1.8-.078 1.019-.86 1.802-1.8 1.802-.94 0-1.8-.783-1.8-1.801 0-.94.782-1.8 1.8-1.8zm5.402 0c.94 0 1.8.783 1.8 1.8s-.782 1.802-1.8 1.802c-.94 0-1.8-.783-1.8-1.801 0-.94.782-1.8 1.8-1.8z" fill="#fff" fill-opacity=".9" fill-rule="evenodd"/></symbol><symbol viewBox="0 0 16 16" id="icon-linkedin" xmlns="http://www.w3.org/2000/svg"><path d="M12.023 5.048C15.38 5.048 16 7.26 16 10.138V16h-3.315v-5.197c0-1.24-.021-2.834-1.723-2.834-1.725 0-1.989 1.351-1.989 2.745V16h-3.31V5.313H8.84v1.46h.046c.442-.84 1.524-1.725 3.137-1.725zm-8.44.265V16H.262V5.313zM1.922 0c1.061 0 1.923.863 1.923 1.926a1.924 1.924 0 11-3.846 0C0 .863.859 0 1.924 0z" fill-rule="evenodd"/></symbol><symbol viewBox="0 0 242 60" id="icon-logo" xmlns="http://www.w3.org/2000/svg"><g fill="none" fill-rule="evenodd"><path d="M199.936 25.42l2.092 7.136h.216l1.681-7.137h2.943v1.426l-3.158 9.597-.082.237c-.734 2.01-2.104 3.014-4.112 3.014h-1.58v-2.728h1.58l.102-.006c.367-.048.647-.36.841-.937v-.103l-3.465-9.033v-1.467zm-36.647 0l.214.008c.637.048 1.203.318 1.698.807.5.494.773 1.065.819 1.715l.006.197v7.978h-2.102l-.42-1.16h-.103l-.017.045a.872.872 0 01-.06.105 1.938 1.938 0 01-.123.16l-.143.168c-.14.16-.294.3-.462.42-.167.12-.394.227-.681.323-.23.077-.475.123-.735.138l-.199.006h-1.363l-.201-.007c-.66-.045-1.234-.317-1.722-.814-.483-.492-.749-1.056-.797-1.692l-.008-.215v-1.261l.008-.215c.048-.636.314-1.2.797-1.692.488-.498 1.062-.769 1.722-.814l.2-.007h3.364v-.738l-.005-.15c-.021-.286-.105-.501-.251-.645-.147-.143-.364-.225-.65-.246l-.15-.005h-4.092v-2.41zm23.153 0l.215.008c.636.048 1.202.318 1.697.807.5.494.774 1.065.82 1.715l.006.197v7.978h-2.102l-.42-1.16h-.103l-.018.045a.872.872 0 01-.059.105 1.938 1.938 0 01-.123.16l-.144.168c-.14.16-.294.3-.461.42-.168.12-.395.227-.682.323-.23.077-.475.123-.735.138l-.198.006h-1.364l-.2-.007c-.66-.045-1.235-.317-1.722-.814-.483-.492-.749-1.056-.797-1.692l-.008-.215v-1.261l.008-.215c.048-.636.314-1.2.797-1.692.487-.498 1.061-.769 1.722-.814l.2-.007h3.363v-.738l-.005-.15c-.02-.286-.104-.501-.25-.645-.147-.143-.364-.225-.651-.246l-.15-.005h-4.091v-2.41zm-11.31-.216l.2.007c.66.045 1.235.316 1.723.813.536.547.804 1.183.804 1.908v8.193h-3.045v-7.137l-.005-.15c-.02-.287-.103-.504-.246-.65-.168-.17-.436-.256-.805-.256h-.626l-.192.005c-.433.025-.746.136-.94.333-.223.226-.334.605-.334 1.138v6.717h-3.045V25.419h2.092l.42 1.149h.113l.017-.043a.851.851 0 01.054-.1c.035-.055.122-.163.262-.324s.294-.3.461-.42a2.7 2.7 0 01.682-.328c.287-.1.598-.149.933-.149zm19.79-3.568v14.489h-3.045v-14.49zm17.801.84v2.943h2.512v1.672l-.84.84h-1.672v4.41l.005.15c.02.286.103.503.246.65.168.17.433.256.795.256h1.784v2.728h-3.148l-.2-.007c-.66-.045-1.234-.317-1.722-.814-.537-.547-.805-1.182-.805-1.907v-5.465H208.2v-2.513h1.682l1.046-2.942zm8.265 2.943v10.706h-3.046V25.419zm10.685 0v1.887l-.841.841h-3.148l-.15.005c-.287.02-.504.103-.65.246-.17.168-.256.433-.256.795v3.148l.005.15c.02.286.102.503.246.65.167.17.436.256.805.256h3.989v2.728h-5.363l-.2-.007c-.661-.045-1.235-.317-1.723-.814-.536-.547-.805-1.182-.805-1.907v-5.25l.008-.215c.049-.636.316-1.2.802-1.692.54-.547 1.18-.82 1.918-.82zm9.74 0v1.672l-.84.84h-3.568l-.123.009a.716.716 0 00-.615.73c0 .362.245.608.738.738l2.307.523.256.072a3.747 3.747 0 011.528.907c.492.482.738 1.03.738 1.646v.841l-.008.215c-.048.636-.316 1.2-.802 1.692-.54.547-1.179.82-1.917.82h-5.886v-2.522h4.83l.122-.008a.697.697 0 00.406-.202c.14-.14.21-.313.21-.518 0-.157-.07-.306-.21-.446s-.317-.238-.528-.292l-2.308-.523-.243-.063c-.635-.183-1.16-.488-1.577-.916-.468-.482-.702-1.031-.702-1.646v-.841l.008-.215c.049-.636.316-1.2.802-1.692.54-.547 1.18-.82 1.918-.82zm-78.432 6.296h-2l-.149.005c-.287.021-.502.103-.645.247-.144.143-.226.358-.246.645l-.005.15v.112l.005.15c.02.286.102.501.246.645.143.143.358.225.645.246l.15.005h.522c.52 0 .896-.116 1.128-.349.204-.203.318-.514.344-.932l.005-.185zm23.153 0h-1.999l-.15.005c-.286.021-.501.103-.645.247-.143.143-.225.358-.246.645l-.005.15v.112l.005.15c.02.286.103.501.246.645.144.143.359.225.646.246l.149.005h.523c.52 0 .895-.116 1.128-.349.203-.203.318-.514.343-.932l.005-.185z" fill="#fff"/><path d="M220.988 24.158V21h-3.046v3.158z" fill="#fdd73e"/><g fill="#fff"><path d="M138.894 25.204l.2.007c.661.045 1.235.316 1.723.813.483.493.748 1.057.797 1.693l.008.215v5.67l-.008.215c-.049.636-.314 1.2-.797 1.692-.488.497-1.062.769-1.722.814l-.2.007h-4.205l-.2-.007c-.66-.045-1.235-.317-1.722-.814-.483-.492-.75-1.056-.797-1.692l-.008-.215v-5.67l.008-.215c.048-.636.316-1.2.802-1.693.49-.497 1.063-.768 1.718-.813l.2-.007zm12.367-3.784v2.523h-2.943l-.15.005c-.286.02-.501.103-.645.246-.167.168-.251.436-.251.805v1.466h2.83v1.58l-.523.943h-2.307v7.137h-3.046V24.158l.009-.215c.049-.636.32-1.202.812-1.697.547-.55 1.182-.826 1.907-.826zm-13.73 6.512h-1.467l-.15.005c-.286.02-.503.102-.65.246-.146.143-.23.361-.25.653l-.006.152v3.568l.005.15c.021.286.105.501.251.645.147.143.364.225.65.246l.15.005h1.466c.363 0 .628-.084.795-.251.144-.144.226-.359.246-.646l.005-.149v-3.568l-.005-.15c-.02-.287-.102-.504-.246-.65-.167-.17-.432-.256-.795-.256zM82.969 25.204l.2.007c.66.045 1.235.316 1.722.813.483.493.749 1.057.797 1.693l.008.215v5.67l-.008.215c-.048.636-.314 1.2-.797 1.692-.487.497-1.061.769-1.722.814l-.2.007h-4.204l-.2-.007c-.661-.045-1.235-.317-1.723-.814-.483-.492-.748-1.056-.797-1.692l-.008-.215v-5.67l.008-.215c.049-.636.316-1.2.802-1.693.491-.497 1.064-.768 1.719-.813l.199-.007zm-19.821.215l.943 6.717h.216l1.784-6.717h2.522l1.784 6.717h.206l.943-6.717h3.158v1.467l-2.317 9.239H69.34l-1.886-6.614h-.205l-1.897 6.614h-3.046L60 26.885V25.42zm28.198-3.783v14.489h-3.045v-14.49zm5.015 3.783l1.989 7.342h.215l1.784-7.342h2.943v1.467l-3.26 9.239h-3.364l-3.25-9.24V25.42zm14.991-.215l.2.007c.66.045 1.235.316 1.723.813.483.493.748 1.057.796 1.693l.008.215v3.988h-6.408v.739l.005.149c.02.287.102.502.246.645.144.144.361.226.653.246l.152.006h4.83v2.42h-6.204l-.2-.007c-.66-.045-1.235-.317-1.723-.814-.483-.492-.748-1.056-.797-1.692l-.008-.215v-5.465l.008-.215c.05-.636.316-1.2.802-1.693.491-.497 1.064-.768 1.719-.813l.199-.007zm12.674.215v1.672l-.84.84h-3.57l-.122.009a.716.716 0 00-.615.73c0 .362.246.608.738.738l2.307.523.256.072a3.747 3.747 0 011.528.907c.492.482.738 1.03.738 1.646v.841l-.008.215c-.048.636-.316 1.2-.802 1.692-.54.547-1.179.82-1.917.82h-5.886v-2.522h4.83l.122-.008a.697.697 0 00.406-.202c.14-.14.21-.313.21-.518 0-.157-.07-.306-.21-.446s-.316-.238-.528-.292l-2.308-.523-.243-.063c-.635-.183-1.16-.488-1.577-.916-.468-.482-.702-1.031-.702-1.646v-.841l.008-.215c.049-.636.316-1.2.802-1.692.54-.547 1.18-.82 1.918-.82zm-42.42 2.513h-1.467l-.15.005c-.287.02-.504.102-.65.246-.147.143-.23.361-.251.653l-.005.152v3.568l.005.15c.02.286.104.501.251.645.146.143.363.225.65.246l.15.005h1.466c.362 0 .627-.084.795-.251.143-.144.225-.359.246-.646l.005-.149v-3.568l-.005-.15c-.02-.287-.103-.504-.246-.65-.168-.17-.433-.256-.795-.256zm28.372-.308h-1.251l-.15.005c-.287.02-.503.103-.65.246-.146.144-.23.359-.251.646l-.005.149v.943h3.363v-.943l-.005-.15c-.02-.286-.103-.501-.246-.645-.168-.167-.436-.251-.805-.251z"/></g><path d="M30.999.02c.505.019 1.008.052 1.507.096l-.023.007.028-.008c.18.016.36.033.538.052l.27.03c.176.02.353.042.53.066l.276.038c.175.025.35.052.524.08l.268.045c.175.03.35.061.523.094l.263.051-.096.09c-.777.715-2.012 1.505-2.358 1.68l-.039.019c-.452.204-1.515 1.239-1.639 1.72l.103.21c.595 1.227 3.538 7.481 2.98 9.983l-.186.82c-.227 1.024-.405 2.031-.156 2.837.315 1.02 4.04 7.42 4.392 7.974.35.554 1.635 1.181 1.19 1.964-.446.782-1.108 1.313-2.09 1.16-.975-.15-3.977 2.239-7.686.943l-.07-.025-.136-.043-.01-.003c-3.76-1.385-6.691 1.219-7.674 1.066-.983-.151-1.644.38-2.09 1.162-.439.768.793 1.387 1.17 1.934l.02.03c.35.553 4.076 6.953 4.39 7.974.316 1.02-.053 2.364-.342 3.657-.483 2.168 1.663 7.155 2.631 9.244 1.65 2.553 4.022 4.01 7.115 4.37a29.751 29.751 0 01-13.33-.646l-.202-.058A30.026 30.026 0 014.708 46.01l-.131-.207a29.605 29.605 0 01-1.292-2.271l-.17-.336-.02-.042a29.759 29.759 0 01-.808-1.778l-.024-.059a27.41 27.41 0 01-.222-.557l-.108-.28a29.553 29.553 0 01-.66-1.953l-.04-.136a29.596 29.596 0 01-.16-.56l-.104-.387c-.056-.215-.11-.43-.16-.647l-.078-.34-.003-.014c-.105-.47-.2-.944-.283-1.423l-.01-.06a30.27 30.27 0 01-.209-1.42C-.85 24.777 1.98 16.435 7.348 10.261A29.744 29.744 0 0127.052.136l.273-.024.195-.017c.278-.022.555-.04.831-.055l.282-.013c.294-.013.588-.02.882-.024l.31-.003c.392 0 .784.006 1.174.02zm-2.061 44l.135.041c.369.116 1.427.469 2.326.99 1.11.643.475 3.646.475 3.646.013-.625-1.49-1.212-2.595-2.105-1.105-.893-.341-2.572-.341-2.572zm-.675-29.586l-.028.15c-.1.579-.396 2.67.461 3.175l.11.064c.976.55 2.104.88 2.104.88l.025-.06c.113-.29.542-1.565-.335-2.285-.995-.817-2.347-1.354-2.337-1.924z" fill="#fdd73e"/></g></symbol><symbol viewBox="0 0 64 52" id="icon-quote" xmlns="http://www.w3.org/2000/svg"><path d="M26 52V0H13L0 28v24zm38 0V0H51L38 28v24z" fill="#ccc"/></symbol><symbol viewBox="0 0 34 34" id="icon-setup" xmlns="http://www.w3.org/2000/svg"><path d="M29.272.413l-.001 7.314.08.02a5.12 5.12 0 013.603 3.874l.05.268.035.273.021.276.007.262a5.137 5.137 0 01-3.484 4.88l-.251.078-.061.014.001 15.395h-2.575l-.001-15.395-.077-.02a5.12 5.12 0 01-3.603-3.874l-.05-.268-.036-.273-.02-.275-.007-.262a5.137 5.137 0 013.483-4.881l.25-.077.06-.015.001-7.314zM17.844 0l-.003 15.623.081.02a5.12 5.12 0 013.603 3.875l.05.268.036.273.02.276.007.261a5.136 5.136 0 01-3.482 4.881l-.251.077-.064.015.003 7.084h-2.575l-.001-7.084-.078-.02a5.12 5.12 0 01-3.603-3.874l-.05-.268-.035-.273-.021-.276-.007-.262a5.136 5.136 0 013.483-4.88l.25-.077.061-.016V0zM6.37 0l-.002 7.727.08.02a5.12 5.12 0 013.603 3.874l.05.268.035.273.021.276.007.262a5.137 5.137 0 01-3.484 4.88l-.251.078-.061.014.002 14.614H3.794V17.672l-.078-.02a5.12 5.12 0 01-3.603-3.874l-.05-.268-.035-.273-.021-.275L0 12.7a5.137 5.137 0 013.483-4.881l.251-.077.06-.015V0zm10.209 18.054c-1.396 0-2.53 1.138-2.53 2.542s1.134 2.543 2.53 2.543 2.53-1.138 2.53-2.543-1.133-2.542-2.53-2.542zM5.105 10.203c-1.397 0-2.53 1.138-2.53 2.543s1.133 2.542 2.53 2.542c1.396 0 2.53-1.138 2.53-2.542s-1.134-2.543-2.53-2.543zm22.857-.046c-1.397 0-2.53 1.138-2.53 2.543s1.133 2.542 2.53 2.542 2.53-1.138 2.53-2.542-1.134-2.543-2.53-2.543z" fill="#fff" fill-opacity=".9" fill-rule="evenodd"/></symbol><symbol viewBox="0 0 22 34" id="icon-strategy" xmlns="http://www.w3.org/2000/svg"><path d="M14.999.667a.96.96 0 01.95.83l.01.13-.002 3.43 5.845 7.626a.96.96 0 01.099 1.01l-.08.131-.102.12-2.662 2.67a.96.96 0 01-1.068.2l-.13-.07-2.038-1.313h-2.158l-.104-.003v1.01a5.15 5.15 0 002.37 4.314l.248.148.245.127a.96.96 0 01.527.726l.01.136-.002 3.058.144.024a3.69 3.69 0 012.94 3.146l.023.238.007.23v3.789a.96.96 0 01-.829.95l-.13.01H.96a.96.96 0 01-.95-.83L0 32.374v-3.789a3.69 3.69 0 012.334-3.427l.22-.08.169-.049V13.243c0-4.925 3.677-9.043 8.472-9.675l.321-.037.055-.004.03-.157A3.496 3.496 0 0114.536.698l.242-.024zm1.393 26.155H3.682c-.911 0-1.663.696-1.754 1.585l-.009.18.001 2.829h16.235v-2.829c0-.912-.695-1.665-1.583-1.756zM14.04 2.916l-.106.09a1.572 1.572 0 00-.49.96l-.012.19-.002.188a.963.963 0 01-.082.504l-.072.127c-.202.309-.561.473-.878.43-4.186.04-7.593 3.384-7.749 7.54l-.005.298-.001 11.66h10.4l-.003-2.447-.164-.099a7.013 7.013 0 01-1.953-1.87l-.216-.327a7.023 7.023 0 01-1.054-3.327l-.011-.394v-1.575l-.077-.044a3.91 3.91 0 01-1.8-3.032l-.009-.267v-.407a.96.96 0 011.91-.13l.009.13v.407a1.992 1.992 0 001.792 1.982l.198.01h2.441c.139 0 .274.03.399.087l.12.066 1.62 1.043 1.524-1.526-5.53-7.215a.957.957 0 01-.19-.458l-.008-.126z" fill="#fff" fill-opacity=".9" fill-rule="evenodd"/></symbol><symbol viewBox="0 0 16 13" id="icon-twitter" xmlns="http://www.w3.org/2000/svg"><path d="M14.36 3.235l.009.424C14.37 8 11.069 13 5.032 13A9.298 9.298 0 010 11.525a6.59 6.59 0 004.861-1.358 3.287 3.287 0 01-3.067-2.282c.2.039.405.057.617.057.301 0 .591-.037.865-.113A3.286 3.286 0 01.644 4.612v-.041c.445.245.948.393 1.486.41A3.291 3.291 0 011.114.598 9.31 9.31 0 007.878 4.03a3.371 3.371 0 01-.082-.749A3.28 3.28 0 0111.077 0a3.29 3.29 0 012.398 1.036A6.627 6.627 0 0015.557.24a3.285 3.285 0 01-1.442 1.816A6.509 6.509 0 0016 1.539a6.612 6.612 0 01-1.64 1.696z"/></symbol></svg>